<svg xmlns="http://www.w3.org/2000/svg" viewBox="0 0 86.95 30.35"><defs><style>.cls-1{fill:#fafbfc;}</style></defs><title>Recurso 1</title><g id="Capa_2" data-name="Capa 2"><g id="Ebene_1" data-name="Ebene 1"><path class="cls-1" d="M58.49,16.17c.54-2.89.79-5.24-.56-7.67A6.69,6.69,0,0,0,51.78,5a9.87,9.87,0,0,0-8,4.15L45.49,0H30.34L25.05,5.14H39l-3.6,19.33H32.31l-1,5.14H43.08l1-5.14H40.92l1.37-7.31c.33-1.81.57-3.34,2.07-4.83a6.37,6.37,0,0,1,4.51-1.94,4.07,4.07,0,0,1,4,2.21c.66,1.54.19,3.3-.13,5.06l-1.27,6.81H48.32l-1,5.14H59.1l.95-5.14H56.94Z"/><polygon class="cls-1" points="34.08 14.62 25.78 14.62 24.82 19.77 33.12 19.77 34.08 14.62"/><path class="cls-1" d="M84.57,8.3a10.24,10.24,0,0,0-8.06-3.6c-6.92,0-13.6,5.74-14.89,12.8a11,11,0,0,0,2.15,9.23c1.93,2.31,4.8,3.35,8.07,3.59,5.59.42,11.59-3.27,14.28-10.61h0l0-.05a14.32,14.32,0,0,0,.57-2.13A11,11,0,0,0,84.57,8.3Zm-3,6.83h0a11.37,11.37,0,0,1-.08,2.61,16.92,16.92,0,0,1-.69,2h0a8,8,0,0,1-8,5.63,6.14,6.14,0,0,1-6.33-5.63h0a14.55,14.55,0,0,1,.54-3.78,5.11,5.11,0,0,1,.35-.8h0a7.7,7.7,0,0,1,2.06-3,9.15,9.15,0,0,1,6.25-2.49c2.44,0,4.83.74,5.49,2.84A6.32,6.32,0,0,1,81.53,15.13Z"/><path class="cls-1" d="M15.55,5.52l-1,5.14h3.12l-1.45,7.76a8.87,8.87,0,0,1-1.92,4.74,6.49,6.49,0,0,1-4.43,2,3.81,3.81,0,0,1-3.68-2.08c-.66-1.31-.39-3-.1-4.51l2.43-13H3.05l-1,5.14L.32,20.18c-.49,2.62-.56,4.92.82,7a7.07,7.07,0,0,0,6.1,3.06,10.76,10.76,0,0,0,7.94-3.61l-.56,3h8.17l1-5.14H20.64L24.17,5.52Z"/></g></g></svg>